<mxfile host="Electron" agent="Mozilla/5.0 (Windows NT 10.0; Win64; x64) AppleWebKit/537.36 (KHTML, like Gecko) draw.io/28.2.5 Chrome/138.0.7204.251 Electron/37.6.1 Safari/537.36" version="28.2.5">
  <diagram name="Page-1" id="n6lgN4TFAnn_S6Fe1MsA">
    <mxGraphModel dx="1261" dy="660" grid="1" gridSize="10" guides="1" tooltips="1" connect="1" arrows="1" fold="1" page="1" pageScale="1" pageWidth="827" pageHeight="1169" math="0" shadow="0">
      <root>
        <mxCell id="0" />
        <mxCell id="1" parent="0" />
        <mxCell id="G_LLIKJa4sjYnqRTsMCa-1" value="Databases" style="rounded=0;whiteSpace=wrap;html=1;" vertex="1" parent="1">
          <mxGeometry x="70" y="30" width="120" height="60" as="geometry" />
        </mxCell>
        <mxCell id="G_LLIKJa4sjYnqRTsMCa-20" style="edgeStyle=orthogonalEdgeStyle;rounded=0;orthogonalLoop=1;jettySize=auto;html=1;exitX=0.5;exitY=1;exitDx=0;exitDy=0;entryX=0.5;entryY=0;entryDx=0;entryDy=0;" edge="1" parent="1" source="G_LLIKJa4sjYnqRTsMCa-2" target="G_LLIKJa4sjYnqRTsMCa-11">
          <mxGeometry relative="1" as="geometry" />
        </mxCell>
        <mxCell id="G_LLIKJa4sjYnqRTsMCa-2" value="Virtual Card Service" style="rounded=0;whiteSpace=wrap;html=1;" vertex="1" parent="1">
          <mxGeometry x="280" y="140" width="120" height="60" as="geometry" />
        </mxCell>
        <mxCell id="G_LLIKJa4sjYnqRTsMCa-14" style="edgeStyle=orthogonalEdgeStyle;rounded=0;orthogonalLoop=1;jettySize=auto;html=1;exitX=0.417;exitY=0;exitDx=0;exitDy=0;exitPerimeter=0;" edge="1" parent="1" source="G_LLIKJa4sjYnqRTsMCa-8" target="G_LLIKJa4sjYnqRTsMCa-6">
          <mxGeometry relative="1" as="geometry">
            <Array as="points">
              <mxPoint x="610" y="190" />
              <mxPoint x="650" y="190" />
              <mxPoint x="650" y="225" />
              <mxPoint x="730" y="225" />
            </Array>
          </mxGeometry>
        </mxCell>
        <mxCell id="G_LLIKJa4sjYnqRTsMCa-17" style="edgeStyle=orthogonalEdgeStyle;rounded=0;orthogonalLoop=1;jettySize=auto;html=1;entryX=1;entryY=0.25;entryDx=0;entryDy=0;exitX=0.082;exitY=1.007;exitDx=0;exitDy=0;exitPerimeter=0;" edge="1" parent="1" source="G_LLIKJa4sjYnqRTsMCa-3" target="G_LLIKJa4sjYnqRTsMCa-9">
          <mxGeometry relative="1" as="geometry">
            <Array as="points">
              <mxPoint x="580" y="220" />
              <mxPoint x="500" y="220" />
              <mxPoint x="500" y="310" />
              <mxPoint x="310" y="310" />
            </Array>
          </mxGeometry>
        </mxCell>
        <mxCell id="G_LLIKJa4sjYnqRTsMCa-18" style="edgeStyle=orthogonalEdgeStyle;rounded=0;orthogonalLoop=1;jettySize=auto;html=1;exitX=0;exitY=0.5;exitDx=0;exitDy=0;entryX=1;entryY=0.5;entryDx=0;entryDy=0;" edge="1" parent="1" source="G_LLIKJa4sjYnqRTsMCa-3" target="G_LLIKJa4sjYnqRTsMCa-7">
          <mxGeometry relative="1" as="geometry">
            <Array as="points">
              <mxPoint x="570" y="160" />
              <mxPoint x="510" y="160" />
              <mxPoint x="510" y="340" />
              <mxPoint x="140" y="340" />
            </Array>
          </mxGeometry>
        </mxCell>
        <mxCell id="G_LLIKJa4sjYnqRTsMCa-3" value="API Gateway" style="rounded=0;whiteSpace=wrap;html=1;" vertex="1" parent="1">
          <mxGeometry x="570" y="120" width="120" height="60" as="geometry" />
        </mxCell>
        <mxCell id="G_LLIKJa4sjYnqRTsMCa-10" style="edgeStyle=orthogonalEdgeStyle;rounded=0;orthogonalLoop=1;jettySize=auto;html=1;entryX=0;entryY=0;entryDx=0;entryDy=0;" edge="1" parent="1" source="G_LLIKJa4sjYnqRTsMCa-4" target="G_LLIKJa4sjYnqRTsMCa-3">
          <mxGeometry relative="1" as="geometry" />
        </mxCell>
        <mxCell id="G_LLIKJa4sjYnqRTsMCa-4" value="Client Apps" style="rounded=0;whiteSpace=wrap;html=1;" vertex="1" parent="1">
          <mxGeometry x="554" y="10" width="116" height="60" as="geometry" />
        </mxCell>
        <mxCell id="G_LLIKJa4sjYnqRTsMCa-24" style="edgeStyle=orthogonalEdgeStyle;rounded=0;orthogonalLoop=1;jettySize=auto;html=1;exitX=0;exitY=0.25;exitDx=0;exitDy=0;entryX=1;entryY=0.25;entryDx=0;entryDy=0;" edge="1" parent="1" source="G_LLIKJa4sjYnqRTsMCa-6" target="G_LLIKJa4sjYnqRTsMCa-1">
          <mxGeometry relative="1" as="geometry" />
        </mxCell>
        <mxCell id="G_LLIKJa4sjYnqRTsMCa-6" value="Authentication Service" style="rounded=0;whiteSpace=wrap;html=1;" vertex="1" parent="1">
          <mxGeometry x="670" y="260" width="120" height="60" as="geometry" />
        </mxCell>
        <mxCell id="G_LLIKJa4sjYnqRTsMCa-7" value="Notification Service" style="rounded=0;whiteSpace=wrap;html=1;" vertex="1" parent="1">
          <mxGeometry x="20" y="260" width="120" height="60" as="geometry" />
        </mxCell>
        <mxCell id="G_LLIKJa4sjYnqRTsMCa-23" style="edgeStyle=orthogonalEdgeStyle;rounded=0;orthogonalLoop=1;jettySize=auto;html=1;exitX=0;exitY=0.5;exitDx=0;exitDy=0;entryX=1;entryY=1;entryDx=0;entryDy=0;" edge="1" parent="1" source="G_LLIKJa4sjYnqRTsMCa-8" target="G_LLIKJa4sjYnqRTsMCa-1">
          <mxGeometry relative="1" as="geometry" />
        </mxCell>
        <mxCell id="G_LLIKJa4sjYnqRTsMCa-8" value="Transaction Service" style="rounded=0;whiteSpace=wrap;html=1;" vertex="1" parent="1">
          <mxGeometry x="560" y="390" width="120" height="60" as="geometry" />
        </mxCell>
        <mxCell id="G_LLIKJa4sjYnqRTsMCa-19" style="edgeStyle=orthogonalEdgeStyle;rounded=0;orthogonalLoop=1;jettySize=auto;html=1;exitX=0.5;exitY=1;exitDx=0;exitDy=0;entryX=0;entryY=1;entryDx=0;entryDy=0;" edge="1" parent="1" source="G_LLIKJa4sjYnqRTsMCa-9" target="G_LLIKJa4sjYnqRTsMCa-11">
          <mxGeometry relative="1" as="geometry" />
        </mxCell>
        <mxCell id="G_LLIKJa4sjYnqRTsMCa-21" style="edgeStyle=orthogonalEdgeStyle;rounded=0;orthogonalLoop=1;jettySize=auto;html=1;exitX=0.75;exitY=0;exitDx=0;exitDy=0;entryX=0.5;entryY=1;entryDx=0;entryDy=0;" edge="1" parent="1" source="G_LLIKJa4sjYnqRTsMCa-9" target="G_LLIKJa4sjYnqRTsMCa-1">
          <mxGeometry relative="1" as="geometry" />
        </mxCell>
        <mxCell id="G_LLIKJa4sjYnqRTsMCa-9" value="Wallet Service" style="rounded=0;whiteSpace=wrap;html=1;" vertex="1" parent="1">
          <mxGeometry x="190" y="200" width="120" height="60" as="geometry" />
        </mxCell>
        <mxCell id="G_LLIKJa4sjYnqRTsMCa-11" value="Third party API&lt;div&gt;&lt;br&gt;&lt;/div&gt;" style="rounded=0;whiteSpace=wrap;html=1;" vertex="1" parent="1">
          <mxGeometry x="320" y="220" width="120" height="60" as="geometry" />
        </mxCell>
        <mxCell id="G_LLIKJa4sjYnqRTsMCa-15" style="edgeStyle=orthogonalEdgeStyle;rounded=0;orthogonalLoop=1;jettySize=auto;html=1;exitX=0.25;exitY=1;exitDx=0;exitDy=0;entryX=0.895;entryY=0.01;entryDx=0;entryDy=0;entryPerimeter=0;" edge="1" parent="1" source="G_LLIKJa4sjYnqRTsMCa-3" target="G_LLIKJa4sjYnqRTsMCa-2">
          <mxGeometry relative="1" as="geometry" />
        </mxCell>
        <mxCell id="G_LLIKJa4sjYnqRTsMCa-22" style="edgeStyle=orthogonalEdgeStyle;rounded=0;orthogonalLoop=1;jettySize=auto;html=1;exitX=0.5;exitY=0;exitDx=0;exitDy=0;entryX=0.825;entryY=1.007;entryDx=0;entryDy=0;entryPerimeter=0;" edge="1" parent="1" source="G_LLIKJa4sjYnqRTsMCa-2" target="G_LLIKJa4sjYnqRTsMCa-1">
          <mxGeometry relative="1" as="geometry" />
        </mxCell>
      </root>
    </mxGraphModel>
  </diagram>
</mxfile>
